<svg width="32" height="32" viewBox="0 0 32 32" fill="none" xmlns="http://www.w3.org/2000/svg">
  <defs>
    <linearGradient id="gradient" x1="0%" y1="0%" x2="100%" y2="100%">
      <stop offset="0%" style="stop-color:#059669;stop-opacity:1" />
      <stop offset="50%" style="stop-color:#0d9488;stop-opacity:1" />
      <stop offset="100%" style="stop-color:#0891b2;stop-opacity:1" />
    </linearGradient>
  </defs>
  
  <!-- Background Circle -->
  <circle cx="16" cy="16" r="14" fill="url(#gradient)" stroke="#fff" stroke-width="1"/>
  
  <!-- Farm/Livestock Icon -->
  <g transform="translate(6,6) scale(1.2)">
    <!-- Cow silhouette -->
    <path d="M3 12c0-1 1-2 2-2h6c1 0 2 1 2 2v2c0 1-1 2-2 2H5c-1 0-2-1-2-2v-2z" fill="#fff" opacity="0.9"/>
    <!-- Cow head -->
    <ellipse cx="4" cy="9" rx="1.5" ry="1" fill="#fff" opacity="0.9"/>
    <!-- Legs -->
    <rect x="4" y="14" width="1" height="2" fill="#fff" opacity="0.7"/>
    <rect x="6" y="14" width="1" height="2" fill="#fff" opacity="0.7"/>
    <rect x="8" y="14" width="1" height="2" fill="#fff" opacity="0.7"/>
    <rect x="10" y="14" width="1" height="2" fill="#fff" opacity="0.7"/>
    <!-- Technology element -->
    <circle cx="13" cy="7" r="2" fill="#fff" opacity="0.3"/>
    <circle cx="13" cy="7" r="1" fill="#fff" opacity="0.8"/>
  </g>
</svg>